<?xml version="1.0" encoding="UTF-8" standalone="no" ?>
<!DOCTYPE svg PUBLIC "-//W3C//DTD SVG 1.1//EN" "http://www.w3.org/Graphics/SVG/1.1/DTD/svg11.dtd">
<svg xmlns="http://www.w3.org/2000/svg" xmlns:xlink="http://www.w3.org/1999/xlink" version="1.1" width="1080" height="1080" viewBox="0 0 1080 1080" xml:space="preserve">
<desc>Created with Fabric.js 4.2.0</desc>
<defs>
</defs>
<g transform="matrix(1 0 0 1 540 540)" id="fb5f018c-9994-4b24-90da-8c408521874c"  >
</g>
<g transform="matrix(1 0 0 1 540 540)" id="d7b2251f-f869-4111-a827-4032e891109b"  >
<rect style="stroke: none; stroke-width: 1; stroke-dasharray: none; stroke-linecap: butt; stroke-dashoffset: 0; stroke-linejoin: miter; stroke-miterlimit: 4; fill: rgb(255,255,255); fill-rule: nonzero; opacity: 1;" vector-effect="non-scaling-stroke"  x="-540" y="-540" rx="0" ry="0" width="1080" height="1080" />
</g>
<g transform="matrix(9.25 0 0 3.01 540.01 516.84)" id="ce619ffb-4f10-4229-a22c-625ed1cce045"  >
<rect style="stroke: rgb(0,0,0); stroke-width: 0; stroke-dasharray: none; stroke-linecap: butt; stroke-dashoffset: 0; stroke-linejoin: miter; stroke-miterlimit: 4; fill: rgb(255,165,0); fill-rule: nonzero; opacity: 1;" vector-effect="non-scaling-stroke"  x="-33.085" y="-33.085" rx="0" ry="0" width="66.17" height="66.17" />
</g>
<g transform="matrix(0 2.82 -1.16 0 801.47 312.48)" id="061f06a2-2290-49da-8f27-603533eca3a5"  >
<rect style="stroke: rgb(0,0,0); stroke-width: 0; stroke-dasharray: none; stroke-linecap: butt; stroke-dashoffset: 0; stroke-linejoin: miter; stroke-miterlimit: 4; fill: rgb(255,127,0); fill-rule: nonzero; opacity: 1;" vector-effect="non-scaling-stroke"  x="-37.46" y="-19.415" rx="0" ry="0" width="74.92" height="38.83" />
</g>
<g transform="matrix(0 0.71 -3.48 0 778.47 641.88)" id="061f06a2-2290-49da-8f27-603533eca3a5"  >
<rect style="stroke: rgb(0,0,0); stroke-width: 0; stroke-dasharray: none; stroke-linecap: butt; stroke-dashoffset: 0; stroke-linejoin: miter; stroke-miterlimit: 4; fill: rgb(226,46,46); fill-rule: nonzero; opacity: 1;" vector-effect="non-scaling-stroke"  x="-37.46" y="-19.415" rx="0" ry="0" width="74.92" height="38.83" />
</g>
<g transform="matrix(7.39 0 0 1.56 539.97 194.11)"  >
<path style="stroke: rgb(0,0,0); stroke-width: 0; stroke-dasharray: none; stroke-linecap: butt; stroke-dashoffset: 0; stroke-linejoin: miter; stroke-miterlimit: 4; fill: rgb(224,11,11); fill-rule: nonzero; opacity: 1;" vector-effect="non-scaling-stroke"  transform=" translate(-50, -50)" d="M 90.375 90.375 L 9.625 90.375 L 9.625 9.625 L 90.375 9.625 L 90.375 90.375 z M 11.625 88.375 L 88.375 88.375 L 88.375 11.625 L 11.625 11.625 L 11.625 88.375 z" stroke-linecap="round" />
</g>
<g transform="matrix(1.5 0 0 1.5 540.04 194.43)"  >
<path style="stroke: rgb(0,0,0); stroke-width: 0; stroke-dasharray: none; stroke-linecap: butt; stroke-dashoffset: 0; stroke-linejoin: miter; stroke-miterlimit: 4; fill: rgb(0,0,0); fill-rule: nonzero; opacity: 1;" vector-effect="non-scaling-stroke"  transform=" translate(-50, -50)" d="M 49.972 85.797 C 40.082 85.797 31.639000000000003 82.271 24.698 75.329 C 17.701 68.333 14.231 59.88999999999999 14.231 49.99799999999999 C 14.231 40.11099999999999 17.701 31.66699999999999 24.698 24.667999999999992 C 31.639 17.73099999999999 40.082 14.202999999999992 49.972 14.202999999999992 C 59.861000000000004 14.202999999999992 68.305 17.73099999999999 75.30199999999999 24.667999999999992 C 82.29899999999999 31.66699999999999 85.77 40.10999999999999 85.77 49.99799999999999 C 85.77 59.88899999999999 82.29899999999999 68.332 75.30199999999999 75.329 C 68.305 82.271 59.861 85.797 49.972 85.797 z M 49.972 38.087 C 51.303000000000004 38.087 52.458 37.623000000000005 53.383 36.698 C 54.30800000000001 35.772999999999996 54.77 34.674 54.77 33.343 C 54.77 32.014 54.308 30.857000000000003 53.383 29.932000000000002 C 52.458000000000006 29.007 51.303000000000004 28.545 49.972 28.545 C 48.641 28.545 47.541000000000004 29.007 46.617000000000004 29.932000000000002 C 45.693000000000005 30.857000000000003 45.230000000000004 32.014 45.230000000000004 33.343 C 45.230000000000004 34.61600000000001 45.69200000000001 35.716 46.617000000000004 36.698 C 47.601 37.623 48.697 38.087 49.972 38.087 z M 50.55 49.999 L 49.394999999999996 50.059000000000005 C 44.769 50.290000000000006 40.952 51.967000000000006 37.882999999999996 55.148 C 34.818999999999996 58.328 33.31699999999999 62.201 33.31699999999999 66.711 C 33.31699999999999 71.39699999999999 34.934999999999995 75.386 38.233999999999995 78.625 C 41.528999999999996 81.805 45.632999999999996 83.426 50.489999999999995 83.426 C 59.455 83.426 67.205 80.131 73.679 73.536 C 80.158 66.94200000000001 83.398 59.08 83.398 49.998000000000005 C 83.398 40.688 80.274 32.940000000000005 74.086 26.693000000000005 C 67.898 20.507000000000005 59.86 17.152000000000005 49.971000000000004 16.632000000000005 C 55.466 17.325000000000006 59.63 19.060000000000006 62.46300000000001 21.896000000000004 C 65.296 24.787000000000006 66.742 28.546000000000006 66.742 33.343 C 66.742 37.856 65.179 41.731 62.11600000000001 44.852000000000004 C 59.049 48.034 55.176 49.768 50.55 49.999 z M 49.972 71.456 C 48.641 71.456 47.541000000000004 70.99000000000001 46.617000000000004 70.065 C 45.693000000000005 69.14099999999999 45.230000000000004 68.042 45.230000000000004 66.711 C 45.230000000000004 65.44 45.69200000000001 64.28399999999999 46.617000000000004 63.36 C 47.541000000000004 62.431 48.641000000000005 61.969 49.972 61.969 C 51.303000000000004 61.969 52.458 62.431000000000004 53.383 63.36 C 54.308 64.284 54.77 65.439 54.77 66.711 C 54.77 68.042 54.308 69.201 53.383 70.126 C 52.458 70.99 51.303 71.456 49.972 71.456 z" stroke-linecap="round" />
</g>
<g transform="matrix(0 0.71 -3.48 0 301.88 643.4)" id="061f06a2-2290-49da-8f27-603533eca3a5"  >
<rect style="stroke: rgb(0,0,0); stroke-width: 0; stroke-dasharray: none; stroke-linecap: butt; stroke-dashoffset: 0; stroke-linejoin: miter; stroke-miterlimit: 4; fill: rgb(226,46,46); fill-rule: nonzero; opacity: 1;" vector-effect="non-scaling-stroke"  x="-37.46" y="-19.415" rx="0" ry="0" width="74.92" height="38.83" />
</g>
<g transform="matrix(0 2.82 -1.16 0 277.4 312.31)" id="061f06a2-2290-49da-8f27-603533eca3a5"  >
<rect style="stroke: rgb(0,0,0); stroke-width: 0; stroke-dasharray: none; stroke-linecap: butt; stroke-dashoffset: 0; stroke-linejoin: miter; stroke-miterlimit: 4; fill: rgb(255,127,0); fill-rule: nonzero; opacity: 1;" vector-effect="non-scaling-stroke"  x="-37.46" y="-19.415" rx="0" ry="0" width="74.92" height="38.83" />
</g>
<g transform="matrix(1.1 0 0 1.1 288.81 468.76)" id="7adc0389-d164-4203-a911-3b31a4a0f5c2"  >
<path style="stroke: rgb(0,0,0); stroke-width: 0; stroke-dasharray: none; stroke-linecap: butt; stroke-dashoffset: 0; stroke-linejoin: miter; stroke-miterlimit: 4; fill: rgb(255,253,253); fill-rule: nonzero; opacity: 1;" vector-effect="non-scaling-stroke"  transform=" translate(-50, -48.46)" d="M 52.974 18.768 L 17.441 54.302 C 14.142999999999999 57.653999999999996 12.466999999999999 61.98 12.466999999999999 66.361 C 12.466999999999999 70.74200000000002 14.142999999999999 75.12100000000001 17.441 78.422 C 20.741 81.776 25.121 83.39699999999999 29.502 83.39699999999999 C 33.829 83.39699999999999 38.21 81.776 41.563 78.422 L 83.58500000000001 36.4 C 86.233 33.75 87.533 30.342999999999996 87.533 26.881999999999998 C 87.533 23.473999999999997 86.179 20.066999999999997 83.58500000000001 17.470999999999997 L 83.58500000000001 17.416999999999998 C 80.989 14.820999999999998 77.58200000000001 13.522999999999998 74.12 13.522999999999998 C 70.71300000000001 13.522999999999998 67.25200000000001 14.820999999999998 64.65700000000001 17.416999999999998 L 32.151 49.919 C 30.204000000000004 51.921 29.177000000000003 54.516999999999996 29.177000000000003 57.11 C 29.177000000000003 59.708 30.204000000000004 62.303 32.151 64.305 C 34.152 66.25 36.749 67.28 39.344 67.28 L 39.344 67.223 C 41.939 67.223 44.589 66.25 46.538000000000004 64.30499999999999 L 73.146 37.69599999999999 L 69.415 33.96399999999999 L 42.807 60.573 C 41.889 61.546 40.588 62.032000000000004 39.345 62.032000000000004 L 39.345 61.979000000000006 C 38.102 61.979000000000006 36.803 61.54500000000001 35.885 60.57300000000001 C 34.911 59.65500000000001 34.477 58.354000000000006 34.477 57.11000000000001 C 34.477 55.86800000000001 34.910999999999994 54.56900000000001 35.885 53.651 L 68.386 21.148000000000003 C 69.955 19.579000000000004 72.064 18.768000000000004 74.119 18.768000000000004 C 76.23 18.768000000000004 78.339 19.580000000000005 79.906 21.148000000000003 C 81.47500000000001 22.716000000000005 82.286 24.825000000000003 82.286 26.881000000000004 C 82.286 28.990000000000002 81.475 31.099000000000004 79.906 32.667 L 37.83 74.745 C 35.559 77.013 32.531 78.149 29.500999999999998 78.149 C 26.473 78.149 23.443999999999996 77.012 21.119 74.745 L 21.173 74.745 C 18.848 72.417 17.712999999999997 69.39 17.712999999999997 66.36 C 17.712999999999997 63.333 18.848 60.303 21.173 58.03 L 56.703 22.445 L 52.974 18.768 z" stroke-linecap="round" />
</g>
<g transform="matrix(1.1 0 0 1.1 402.41 472.14)"  >
<path style="stroke: rgb(0,0,0); stroke-width: 0; stroke-dasharray: none; stroke-linecap: butt; stroke-dashoffset: 0; stroke-linejoin: miter; stroke-miterlimit: 4; fill: rgb(255,253,253); fill-rule: nonzero; opacity: 1;" vector-effect="non-scaling-stroke"  transform=" translate(-50, -48.46)" d="M 52.974 18.768 L 17.441 54.302 C 14.142999999999999 57.653999999999996 12.466999999999999 61.98 12.466999999999999 66.361 C 12.466999999999999 70.74200000000002 14.142999999999999 75.12100000000001 17.441 78.422 C 20.741 81.776 25.121 83.39699999999999 29.502 83.39699999999999 C 33.829 83.39699999999999 38.21 81.776 41.563 78.422 L 83.58500000000001 36.4 C 86.233 33.75 87.533 30.342999999999996 87.533 26.881999999999998 C 87.533 23.473999999999997 86.179 20.066999999999997 83.58500000000001 17.470999999999997 L 83.58500000000001 17.416999999999998 C 80.989 14.820999999999998 77.58200000000001 13.522999999999998 74.12 13.522999999999998 C 70.71300000000001 13.522999999999998 67.25200000000001 14.820999999999998 64.65700000000001 17.416999999999998 L 32.151 49.919 C 30.204000000000004 51.921 29.177000000000003 54.516999999999996 29.177000000000003 57.11 C 29.177000000000003 59.708 30.204000000000004 62.303 32.151 64.305 C 34.152 66.25 36.749 67.28 39.344 67.28 L 39.344 67.223 C 41.939 67.223 44.589 66.25 46.538000000000004 64.30499999999999 L 73.146 37.69599999999999 L 69.415 33.96399999999999 L 42.807 60.573 C 41.889 61.546 40.588 62.032000000000004 39.345 62.032000000000004 L 39.345 61.979000000000006 C 38.102 61.979000000000006 36.803 61.54500000000001 35.885 60.57300000000001 C 34.911 59.65500000000001 34.477 58.354000000000006 34.477 57.11000000000001 C 34.477 55.86800000000001 34.910999999999994 54.56900000000001 35.885 53.651 L 68.386 21.148000000000003 C 69.955 19.579000000000004 72.064 18.768000000000004 74.119 18.768000000000004 C 76.23 18.768000000000004 78.339 19.580000000000005 79.906 21.148000000000003 C 81.47500000000001 22.716000000000005 82.286 24.825000000000003 82.286 26.881000000000004 C 82.286 28.990000000000002 81.475 31.099000000000004 79.906 32.667 L 37.83 74.745 C 35.559 77.013 32.531 78.149 29.500999999999998 78.149 C 26.473 78.149 23.443999999999996 77.012 21.119 74.745 L 21.173 74.745 C 18.848 72.417 17.712999999999997 69.39 17.712999999999997 66.36 C 17.712999999999997 63.333 18.848 60.303 21.173 58.03 L 56.703 22.445 L 52.974 18.768 z" stroke-linecap="round" />
</g>
<g transform="matrix(1.1 0 0 1.1 540 466.88)"  >
<path style="stroke: rgb(0,0,0); stroke-width: 0; stroke-dasharray: none; stroke-linecap: butt; stroke-dashoffset: 0; stroke-linejoin: miter; stroke-miterlimit: 4; fill: rgb(255,253,253); fill-rule: nonzero; opacity: 1;" vector-effect="non-scaling-stroke"  transform=" translate(-50, -48.46)" d="M 52.974 18.768 L 17.441 54.302 C 14.142999999999999 57.653999999999996 12.466999999999999 61.98 12.466999999999999 66.361 C 12.466999999999999 70.74200000000002 14.142999999999999 75.12100000000001 17.441 78.422 C 20.741 81.776 25.121 83.39699999999999 29.502 83.39699999999999 C 33.829 83.39699999999999 38.21 81.776 41.563 78.422 L 83.58500000000001 36.4 C 86.233 33.75 87.533 30.342999999999996 87.533 26.881999999999998 C 87.533 23.473999999999997 86.179 20.066999999999997 83.58500000000001 17.470999999999997 L 83.58500000000001 17.416999999999998 C 80.989 14.820999999999998 77.58200000000001 13.522999999999998 74.12 13.522999999999998 C 70.71300000000001 13.522999999999998 67.25200000000001 14.820999999999998 64.65700000000001 17.416999999999998 L 32.151 49.919 C 30.204000000000004 51.921 29.177000000000003 54.516999999999996 29.177000000000003 57.11 C 29.177000000000003 59.708 30.204000000000004 62.303 32.151 64.305 C 34.152 66.25 36.749 67.28 39.344 67.28 L 39.344 67.223 C 41.939 67.223 44.589 66.25 46.538000000000004 64.30499999999999 L 73.146 37.69599999999999 L 69.415 33.96399999999999 L 42.807 60.573 C 41.889 61.546 40.588 62.032000000000004 39.345 62.032000000000004 L 39.345 61.979000000000006 C 38.102 61.979000000000006 36.803 61.54500000000001 35.885 60.57300000000001 C 34.911 59.65500000000001 34.477 58.354000000000006 34.477 57.11000000000001 C 34.477 55.86800000000001 34.910999999999994 54.56900000000001 35.885 53.651 L 68.386 21.148000000000003 C 69.955 19.579000000000004 72.064 18.768000000000004 74.119 18.768000000000004 C 76.23 18.768000000000004 78.339 19.580000000000005 79.906 21.148000000000003 C 81.47500000000001 22.716000000000005 82.286 24.825000000000003 82.286 26.881000000000004 C 82.286 28.990000000000002 81.475 31.099000000000004 79.906 32.667 L 37.83 74.745 C 35.559 77.013 32.531 78.149 29.500999999999998 78.149 C 26.473 78.149 23.443999999999996 77.012 21.119 74.745 L 21.173 74.745 C 18.848 72.417 17.712999999999997 69.39 17.712999999999997 66.36 C 17.712999999999997 63.333 18.848 60.303 21.173 58.03 L 56.703 22.445 L 52.974 18.768 z" stroke-linecap="round" />
</g>
<g transform="matrix(1.1 0 0 1.1 661.9 470.1)"  >
<path style="stroke: rgb(0,0,0); stroke-width: 0; stroke-dasharray: none; stroke-linecap: butt; stroke-dashoffset: 0; stroke-linejoin: miter; stroke-miterlimit: 4; fill: rgb(255,253,253); fill-rule: nonzero; opacity: 1;" vector-effect="non-scaling-stroke"  transform=" translate(-50, -48.46)" d="M 52.974 18.768 L 17.441 54.302 C 14.142999999999999 57.653999999999996 12.466999999999999 61.98 12.466999999999999 66.361 C 12.466999999999999 70.74200000000002 14.142999999999999 75.12100000000001 17.441 78.422 C 20.741 81.776 25.121 83.39699999999999 29.502 83.39699999999999 C 33.829 83.39699999999999 38.21 81.776 41.563 78.422 L 83.58500000000001 36.4 C 86.233 33.75 87.533 30.342999999999996 87.533 26.881999999999998 C 87.533 23.473999999999997 86.179 20.066999999999997 83.58500000000001 17.470999999999997 L 83.58500000000001 17.416999999999998 C 80.989 14.820999999999998 77.58200000000001 13.522999999999998 74.12 13.522999999999998 C 70.71300000000001 13.522999999999998 67.25200000000001 14.820999999999998 64.65700000000001 17.416999999999998 L 32.151 49.919 C 30.204000000000004 51.921 29.177000000000003 54.516999999999996 29.177000000000003 57.11 C 29.177000000000003 59.708 30.204000000000004 62.303 32.151 64.305 C 34.152 66.25 36.749 67.28 39.344 67.28 L 39.344 67.223 C 41.939 67.223 44.589 66.25 46.538000000000004 64.30499999999999 L 73.146 37.69599999999999 L 69.415 33.96399999999999 L 42.807 60.573 C 41.889 61.546 40.588 62.032000000000004 39.345 62.032000000000004 L 39.345 61.979000000000006 C 38.102 61.979000000000006 36.803 61.54500000000001 35.885 60.57300000000001 C 34.911 59.65500000000001 34.477 58.354000000000006 34.477 57.11000000000001 C 34.477 55.86800000000001 34.910999999999994 54.56900000000001 35.885 53.651 L 68.386 21.148000000000003 C 69.955 19.579000000000004 72.064 18.768000000000004 74.119 18.768000000000004 C 76.23 18.768000000000004 78.339 19.580000000000005 79.906 21.148000000000003 C 81.47500000000001 22.716000000000005 82.286 24.825000000000003 82.286 26.881000000000004 C 82.286 28.990000000000002 81.475 31.099000000000004 79.906 32.667 L 37.83 74.745 C 35.559 77.013 32.531 78.149 29.500999999999998 78.149 C 26.473 78.149 23.443999999999996 77.012 21.119 74.745 L 21.173 74.745 C 18.848 72.417 17.712999999999997 69.39 17.712999999999997 66.36 C 17.712999999999997 63.333 18.848 60.303 21.173 58.03 L 56.703 22.445 L 52.974 18.768 z" stroke-linecap="round" />
</g>
<g transform="matrix(1.1 0 0 1.1 775.32 469.93)"  >
<path style="stroke: rgb(0,0,0); stroke-width: 0; stroke-dasharray: none; stroke-linecap: butt; stroke-dashoffset: 0; stroke-linejoin: miter; stroke-miterlimit: 4; fill: rgb(255,253,253); fill-rule: nonzero; opacity: 1;" vector-effect="non-scaling-stroke"  transform=" translate(-50, -48.46)" d="M 52.974 18.768 L 17.441 54.302 C 14.142999999999999 57.653999999999996 12.466999999999999 61.98 12.466999999999999 66.361 C 12.466999999999999 70.74200000000002 14.142999999999999 75.12100000000001 17.441 78.422 C 20.741 81.776 25.121 83.39699999999999 29.502 83.39699999999999 C 33.829 83.39699999999999 38.21 81.776 41.563 78.422 L 83.58500000000001 36.4 C 86.233 33.75 87.533 30.342999999999996 87.533 26.881999999999998 C 87.533 23.473999999999997 86.179 20.066999999999997 83.58500000000001 17.470999999999997 L 83.58500000000001 17.416999999999998 C 80.989 14.820999999999998 77.58200000000001 13.522999999999998 74.12 13.522999999999998 C 70.71300000000001 13.522999999999998 67.25200000000001 14.820999999999998 64.65700000000001 17.416999999999998 L 32.151 49.919 C 30.204000000000004 51.921 29.177000000000003 54.516999999999996 29.177000000000003 57.11 C 29.177000000000003 59.708 30.204000000000004 62.303 32.151 64.305 C 34.152 66.25 36.749 67.28 39.344 67.28 L 39.344 67.223 C 41.939 67.223 44.589 66.25 46.538000000000004 64.30499999999999 L 73.146 37.69599999999999 L 69.415 33.96399999999999 L 42.807 60.573 C 41.889 61.546 40.588 62.032000000000004 39.345 62.032000000000004 L 39.345 61.979000000000006 C 38.102 61.979000000000006 36.803 61.54500000000001 35.885 60.57300000000001 C 34.911 59.65500000000001 34.477 58.354000000000006 34.477 57.11000000000001 C 34.477 55.86800000000001 34.910999999999994 54.56900000000001 35.885 53.651 L 68.386 21.148000000000003 C 69.955 19.579000000000004 72.064 18.768000000000004 74.119 18.768000000000004 C 76.23 18.768000000000004 78.339 19.580000000000005 79.906 21.148000000000003 C 81.47500000000001 22.716000000000005 82.286 24.825000000000003 82.286 26.881000000000004 C 82.286 28.990000000000002 81.475 31.099000000000004 79.906 32.667 L 37.83 74.745 C 35.559 77.013 32.531 78.149 29.500999999999998 78.149 C 26.473 78.149 23.443999999999996 77.012 21.119 74.745 L 21.173 74.745 C 18.848 72.417 17.712999999999997 69.39 17.712999999999997 66.36 C 17.712999999999997 63.333 18.848 60.303 21.173 58.03 L 56.703 22.445 L 52.974 18.768 z" stroke-linecap="round" />
</g>
<g transform="matrix(4.83 0 0 0.98 540 571.38)" id="ebabc25f-0d98-42ce-b5c7-1583a900aa62"  >
<path style="stroke: rgb(0,0,0); stroke-width: 0; stroke-dasharray: none; stroke-linecap: butt; stroke-dashoffset: 0; stroke-linejoin: miter; stroke-miterlimit: 4; fill: rgb(255,216,144); fill-rule: nonzero; opacity: 1;" vector-effect="non-scaling-stroke"  transform=" translate(-50, -50)" d="M 94.75 50 C 94.75 56.213 89.514 61.25 83.054 61.25 L 16.946 61.25 C 10.486 61.25 5.25 56.213 5.25 50 L 5.25 50 C 5.25 43.787 10.486 38.75 16.945999999999998 38.75 L 83.053 38.75 C 89.514 38.75 94.75 43.787 94.75 50 L 94.75 50 z" stroke-linecap="round" />
</g>
<g transform="matrix(1.02 0 0 1.02 351.5 198.94)"  >
<g style="" vector-effect="non-scaling-stroke"   >
		<g transform="matrix(1 0 0 1 0.86 5.92)"  >
<path style="stroke: none; stroke-width: 1; stroke-dasharray: none; stroke-linecap: butt; stroke-dashoffset: 0; stroke-linejoin: miter; stroke-miterlimit: 4; fill: rgb(146,0,0); fill-rule: nonzero; opacity: 1;" vector-effect="non-scaling-stroke"  transform=" translate(-50.86, -55.92)" d="M 50.861 87.432 L 46.214999999999996 87.432 L 42.589999999999996 82.34400000000001 C 42.589999999999996 73.18400000000001 41.827 64.72600000000001 36.92699999999999 59.95500000000001 C 32.855999999999995 56.201000000000015 30.313999999999993 50.85900000000001 30.313999999999993 44.942000000000014 C 30.313999999999993 33.622000000000014 39.535 24.399000000000015 50.85999999999999 24.399000000000015 C 62.17999999999999 24.399000000000015 71.401 33.622000000000014 71.401 44.942000000000014 C 71.401 50.859000000000016 68.859 56.201000000000015 64.788 59.95500000000001 C 59.891999999999996 64.72600000000001 59.126 73.18400000000001 59.126 82.34400000000001 L 55.501 87.432 L 50.861 87.432 z M 44.625 74.33 L 57.093 74.33 C 57.794000000000004 67.77799999999999 59.574000000000005 60.908 62.81700000000001 57.792 C 66.31500000000001 54.547000000000004 68.48 49.969 68.48 44.879000000000005 C 68.48 35.148 60.591 27.261000000000006 50.86200000000001 27.261000000000006 C 41.12800000000001 27.261000000000006 33.239000000000004 35.148 33.239000000000004 44.879000000000005 C 33.239000000000004 49.96900000000001 35.404 54.547000000000004 38.84 57.792 C 42.083 60.908 43.928 67.778 44.625 74.33 z" stroke-linecap="round" />
</g>
		<g transform="matrix(1 0 0 1 27.51 -6.08)"  >
<path style="stroke: none; stroke-width: 1; stroke-dasharray: none; stroke-linecap: butt; stroke-dashoffset: 0; stroke-linejoin: miter; stroke-miterlimit: 4; fill: rgb(146,0,0); fill-rule: nonzero; opacity: 1;" vector-effect="non-scaling-stroke"  transform=" translate(-77.51, -43.93)" d="M 80.181 45.262 L 74.838 45.262 C 74.076 45.262 73.502 44.688 73.502 43.926 C 73.502 43.227000000000004 74.076 42.589 74.838 42.589 L 80.181 42.589 C 80.944 42.589 81.518 43.227 81.518 43.926 C 81.518 44.688 80.943 45.262 80.181 45.262 z" stroke-linecap="round" />
</g>
		<g transform="matrix(1 0 0 1 -27.51 -6.08)"  >
<path style="stroke: none; stroke-width: 1; stroke-dasharray: none; stroke-linecap: butt; stroke-dashoffset: 0; stroke-linejoin: miter; stroke-miterlimit: 4; fill: rgb(146,0,0); fill-rule: nonzero; opacity: 1;" vector-effect="non-scaling-stroke"  transform=" translate(-22.49, -43.93)" d="M 25.162 45.262 L 19.82 45.262 C 19.057 45.262 18.483 44.688 18.483 43.926 C 18.483 43.227000000000004 19.057000000000002 42.589 19.82 42.589 L 25.162 42.589 C 25.863 42.589 26.499 43.227 26.499 43.926 C 26.499 44.688 25.863 45.262 25.162 45.262 z" stroke-linecap="round" />
</g>
		<g transform="matrix(1 0 0 1 19.44 -25.51)"  >
<path style="stroke: none; stroke-width: 1; stroke-dasharray: none; stroke-linecap: butt; stroke-dashoffset: 0; stroke-linejoin: miter; stroke-miterlimit: 4; fill: rgb(146,0,0); fill-rule: nonzero; opacity: 1;" vector-effect="non-scaling-stroke"  transform=" translate(-69.44, -24.49)" d="M 72.297 23.571 L 68.47999999999999 27.325000000000003 C 67.97099999999999 27.833000000000002 67.14299999999999 27.833000000000002 66.63399999999999 27.325000000000003 C 66.05999999999999 26.816000000000003 66.05999999999999 25.988000000000003 66.63399999999999 25.416000000000004 L 70.38599999999998 21.665000000000003 C 70.89399999999998 21.154000000000003 71.78799999999998 21.154000000000003 72.29699999999998 21.665000000000003 C 72.805 22.173 72.805 23.063 72.297 23.571 z" stroke-linecap="round" />
</g>
		<g transform="matrix(1 0 0 1 -19.46 13.42)"  >
<path style="stroke: none; stroke-width: 1; stroke-dasharray: none; stroke-linecap: butt; stroke-dashoffset: 0; stroke-linejoin: miter; stroke-miterlimit: 4; fill: rgb(146,0,0); fill-rule: nonzero; opacity: 1;" vector-effect="non-scaling-stroke"  transform=" translate(-30.54, -63.42)" d="M 33.366 62.436 L 29.615 66.251 C 29.046 66.76100000000001 28.217 66.76100000000001 27.709 66.251 C 27.201 65.742 27.201 64.85300000000001 27.709 64.34400000000001 L 31.46 60.59100000000001 C 31.968 60.08200000000001 32.858000000000004 60.08200000000001 33.366 60.59100000000001 C 33.879 61.099 33.879 61.927 33.366 62.436 z" stroke-linecap="round" />
</g>
		<g transform="matrix(1 0 0 1 19.44 13.42)"  >
<path style="stroke: none; stroke-width: 1; stroke-dasharray: none; stroke-linecap: butt; stroke-dashoffset: 0; stroke-linejoin: miter; stroke-miterlimit: 4; fill: rgb(146,0,0); fill-rule: nonzero; opacity: 1;" vector-effect="non-scaling-stroke"  transform=" translate(-69.44, -63.42)" d="M 70.386 66.251 L 66.634 62.43600000000001 C 66.06 61.92700000000001 66.06 61.099000000000004 66.634 60.59100000000001 C 67.143 60.08200000000001 67.971 60.08200000000001 68.48 60.59100000000001 L 72.297 64.34400000000001 C 72.80499999999999 64.85300000000001 72.80499999999999 65.742 72.297 66.251 C 71.788 66.761 70.894 66.761 70.386 66.251 z" stroke-linecap="round" />
</g>
		<g transform="matrix(1 0 0 1 -19.46 -25.51)"  >
<path style="stroke: none; stroke-width: 1; stroke-dasharray: none; stroke-linecap: butt; stroke-dashoffset: 0; stroke-linejoin: miter; stroke-miterlimit: 4; fill: rgb(146,0,0); fill-rule: nonzero; opacity: 1;" vector-effect="non-scaling-stroke"  transform=" translate(-30.54, -24.49)" d="M 31.459 27.325 L 27.708 23.570999999999998 C 27.2 23.063 27.2 22.173 27.708 21.665 C 28.215999999999998 21.154 29.044999999999998 21.154 29.613999999999997 21.665 L 33.364999999999995 25.416 C 33.87799999999999 25.988 33.87799999999999 26.816 33.364999999999995 27.325 C 32.857 27.833 31.968 27.833 31.459 27.325 z" stroke-linecap="round" />
</g>
		<g transform="matrix(1 0 0 1 1.3 -33.39)"  >
<path style="stroke: none; stroke-width: 1; stroke-dasharray: none; stroke-linecap: butt; stroke-dashoffset: 0; stroke-linejoin: miter; stroke-miterlimit: 4; fill: rgb(146,0,0); fill-rule: nonzero; opacity: 1;" vector-effect="non-scaling-stroke"  transform=" translate(-51.3, -16.61)" d="M 49.967 19.311 L 49.967 13.902999999999999 C 49.967 13.203999999999999 50.541 12.568999999999999 51.303 12.568999999999999 C 52.004 12.568999999999999 52.64 13.203999999999999 52.64 13.902999999999999 L 52.64 19.311 C 52.64 20.01 52.004 20.645 51.303 20.645 C 50.541 20.646 49.967 20.01 49.967 19.311 z" stroke-linecap="round" />
</g>
</g>
</g>
<g transform="matrix(1.02 0 0 1.02 732.87 200.54)"  >
<g style="" vector-effect="non-scaling-stroke"   >
		<g transform="matrix(1 0 0 1 0.85 5.92)"  >
<path style="stroke: none; stroke-width: 1; stroke-dasharray: none; stroke-linecap: butt; stroke-dashoffset: 0; stroke-linejoin: miter; stroke-miterlimit: 4; fill: rgb(146,0,0); fill-rule: nonzero; opacity: 1;" vector-effect="non-scaling-stroke"  transform=" translate(-50.86, -55.92)" d="M 50.861 87.432 L 46.214999999999996 87.432 L 42.589999999999996 82.34400000000001 C 42.589999999999996 73.18400000000001 41.827 64.72600000000001 36.92699999999999 59.95500000000001 C 32.855999999999995 56.201000000000015 30.313999999999993 50.85900000000001 30.313999999999993 44.942000000000014 C 30.313999999999993 33.622000000000014 39.535 24.399000000000015 50.85999999999999 24.399000000000015 C 62.17999999999999 24.399000000000015 71.401 33.622000000000014 71.401 44.942000000000014 C 71.401 50.859000000000016 68.859 56.201000000000015 64.788 59.95500000000001 C 59.891999999999996 64.72600000000001 59.126 73.18400000000001 59.126 82.34400000000001 L 55.501 87.432 L 50.861 87.432 z M 44.625 74.33 L 57.093 74.33 C 57.794000000000004 67.77799999999999 59.574000000000005 60.908 62.81700000000001 57.792 C 66.31500000000001 54.547000000000004 68.48 49.969 68.48 44.879000000000005 C 68.48 35.148 60.591 27.261000000000006 50.86200000000001 27.261000000000006 C 41.12800000000001 27.261000000000006 33.239000000000004 35.148 33.239000000000004 44.879000000000005 C 33.239000000000004 49.96900000000001 35.404 54.547000000000004 38.84 57.792 C 42.083 60.908 43.928 67.778 44.625 74.33 z" stroke-linecap="round" />
</g>
		<g transform="matrix(1 0 0 1 27.51 -6.07)"  >
<path style="stroke: none; stroke-width: 1; stroke-dasharray: none; stroke-linecap: butt; stroke-dashoffset: 0; stroke-linejoin: miter; stroke-miterlimit: 4; fill: rgb(146,0,0); fill-rule: nonzero; opacity: 1;" vector-effect="non-scaling-stroke"  transform=" translate(-77.51, -43.93)" d="M 80.181 45.262 L 74.838 45.262 C 74.076 45.262 73.502 44.688 73.502 43.926 C 73.502 43.227000000000004 74.076 42.589 74.838 42.589 L 80.181 42.589 C 80.944 42.589 81.518 43.227 81.518 43.926 C 81.518 44.688 80.943 45.262 80.181 45.262 z" stroke-linecap="round" />
</g>
		<g transform="matrix(1 0 0 1 -27.51 -6.07)"  >
<path style="stroke: none; stroke-width: 1; stroke-dasharray: none; stroke-linecap: butt; stroke-dashoffset: 0; stroke-linejoin: miter; stroke-miterlimit: 4; fill: rgb(146,0,0); fill-rule: nonzero; opacity: 1;" vector-effect="non-scaling-stroke"  transform=" translate(-22.49, -43.93)" d="M 25.162 45.262 L 19.82 45.262 C 19.057 45.262 18.483 44.688 18.483 43.926 C 18.483 43.227000000000004 19.057000000000002 42.589 19.82 42.589 L 25.162 42.589 C 25.863 42.589 26.499 43.227 26.499 43.926 C 26.499 44.688 25.863 45.262 25.162 45.262 z" stroke-linecap="round" />
</g>
		<g transform="matrix(1 0 0 1 19.44 -25.51)"  >
<path style="stroke: none; stroke-width: 1; stroke-dasharray: none; stroke-linecap: butt; stroke-dashoffset: 0; stroke-linejoin: miter; stroke-miterlimit: 4; fill: rgb(146,0,0); fill-rule: nonzero; opacity: 1;" vector-effect="non-scaling-stroke"  transform=" translate(-69.44, -24.49)" d="M 72.297 23.571 L 68.47999999999999 27.325000000000003 C 67.97099999999999 27.833000000000002 67.14299999999999 27.833000000000002 66.63399999999999 27.325000000000003 C 66.05999999999999 26.816000000000003 66.05999999999999 25.988000000000003 66.63399999999999 25.416000000000004 L 70.38599999999998 21.665000000000003 C 70.89399999999998 21.154000000000003 71.78799999999998 21.154000000000003 72.29699999999998 21.665000000000003 C 72.805 22.173 72.805 23.063 72.297 23.571 z" stroke-linecap="round" />
</g>
		<g transform="matrix(1 0 0 1 -19.46 13.42)"  >
<path style="stroke: none; stroke-width: 1; stroke-dasharray: none; stroke-linecap: butt; stroke-dashoffset: 0; stroke-linejoin: miter; stroke-miterlimit: 4; fill: rgb(146,0,0); fill-rule: nonzero; opacity: 1;" vector-effect="non-scaling-stroke"  transform=" translate(-30.54, -63.42)" d="M 33.366 62.436 L 29.615 66.251 C 29.046 66.76100000000001 28.217 66.76100000000001 27.709 66.251 C 27.201 65.742 27.201 64.85300000000001 27.709 64.34400000000001 L 31.46 60.59100000000001 C 31.968 60.08200000000001 32.858000000000004 60.08200000000001 33.366 60.59100000000001 C 33.879 61.099 33.879 61.927 33.366 62.436 z" stroke-linecap="round" />
</g>
		<g transform="matrix(1 0 0 1 19.44 13.42)"  >
<path style="stroke: none; stroke-width: 1; stroke-dasharray: none; stroke-linecap: butt; stroke-dashoffset: 0; stroke-linejoin: miter; stroke-miterlimit: 4; fill: rgb(146,0,0); fill-rule: nonzero; opacity: 1;" vector-effect="non-scaling-stroke"  transform=" translate(-69.44, -63.42)" d="M 70.386 66.251 L 66.634 62.43600000000001 C 66.06 61.92700000000001 66.06 61.099000000000004 66.634 60.59100000000001 C 67.143 60.08200000000001 67.971 60.08200000000001 68.48 60.59100000000001 L 72.297 64.34400000000001 C 72.80499999999999 64.85300000000001 72.80499999999999 65.742 72.297 66.251 C 71.788 66.761 70.894 66.761 70.386 66.251 z" stroke-linecap="round" />
</g>
		<g transform="matrix(1 0 0 1 -19.46 -25.51)"  >
<path style="stroke: none; stroke-width: 1; stroke-dasharray: none; stroke-linecap: butt; stroke-dashoffset: 0; stroke-linejoin: miter; stroke-miterlimit: 4; fill: rgb(146,0,0); fill-rule: nonzero; opacity: 1;" vector-effect="non-scaling-stroke"  transform=" translate(-30.54, -24.49)" d="M 31.459 27.325 L 27.708 23.570999999999998 C 27.2 23.063 27.2 22.173 27.708 21.665 C 28.215999999999998 21.154 29.044999999999998 21.154 29.613999999999997 21.665 L 33.364999999999995 25.416 C 33.87799999999999 25.988 33.87799999999999 26.816 33.364999999999995 27.325 C 32.857 27.833 31.968 27.833 31.459 27.325 z" stroke-linecap="round" />
</g>
		<g transform="matrix(1 0 0 1 1.31 -33.39)"  >
<path style="stroke: none; stroke-width: 1; stroke-dasharray: none; stroke-linecap: butt; stroke-dashoffset: 0; stroke-linejoin: miter; stroke-miterlimit: 4; fill: rgb(146,0,0); fill-rule: nonzero; opacity: 1;" vector-effect="non-scaling-stroke"  transform=" translate(-51.3, -16.61)" d="M 49.967 19.311 L 49.967 13.902999999999999 C 49.967 13.203999999999999 50.541 12.568999999999999 51.303 12.568999999999999 C 52.004 12.568999999999999 52.64 13.203999999999999 52.64 13.902999999999999 L 52.64 19.311 C 52.64 20.01 52.004 20.645 51.303 20.645 C 50.541 20.646 49.967 20.01 49.967 19.311 z" stroke-linecap="round" />
</g>
</g>
</g>
</svg>